<svg xmlns="http://www.w3.org/2000/svg" xmlns:xlink="http://www.w3.org/1999/xlink" viewBox="0 0 527.79 512.25"><defs><style>.cls-1{fill:none;stroke-miterlimit:10;stroke-width:8px;stroke:url(#Sfumatura_senza_nome_171);}</style><linearGradient id="Sfumatura_senza_nome_171" x1="263.89" x2="263.89" y2="512.25" gradientUnits="userSpaceOnUse"><stop offset="0" stop-color="#2b86c5"/><stop offset="1" stop-color="#fd3cac"/></linearGradient></defs><g id="Livello_2" data-name="Livello 2"><g id="Livello_1-2" data-name="Livello 1"><path class="cls-1" d="M263.89,220a36,36,0,1,0,36,36A36,36,0,0,0,263.89,220Zm0,0V148m-108,108h72m144,0h-72m180-216c-19.88,0-36,24.18-36,54s16.12,54,36,54,36-24.18,36-54S499.78,40,479.89,40Zm-216,108h216m0-108h-216m0,396,252-90L365.63,292.33a108,108,0,1,0-203.47,0L11.89,346Zm-151.2-54L11.89,418l252,90,252-90-100.8-36M335.89,14.44A252,252,0,0,0,263.89,4c-139.17,0-252,112.82-252,252m504,0a252,252,0,0,0-10.43-72m-38.1,144.67A216.58,216.58,0,0,0,451,148M263.89,40c-119.29,0-216,96.71-216,216a215.65,215.65,0,0,0,12.53,72.67"/></g></g></svg>