<svg width="1440" height="1024" viewBox="0 0 1440 1024" fill="none" xmlns="http://www.w3.org/2000/svg">
<path d="M772.024 1209.05C721.638 1099.41 926.144 1021.49 1004.37 917.401C1060.99 842.053 1056.79 715.597 1156.32 697.686C1255.56 679.828 1301.75 790.912 1368.94 851.797C1418.13 896.382 1479.24 933.028 1485.72 996.195C1493.16 1068.64 1469.23 1146.71 1404.37 1196.98C1336.54 1249.56 1245.47 1248.92 1157.49 1250.6C1020.06 1253.22 821.927 1317.64 772.024 1209.05Z" fill="#9847A3"/>
<path d="M890.769 1165.62C847.205 1072.47 1008.21 1012.3 1067.55 927.034C1110.51 865.308 1103.32 759.222 1182.29 746.71C1261.02 734.235 1301.28 828.492 1356.79 881.205C1397.44 919.806 1447.36 952.052 1454.44 1005.15C1462.58 1066.06 1445.82 1130.89 1395.53 1171.39C1342.93 1213.75 1270.17 1210.92 1199.94 1210.12C1090.23 1208.87 933.914 1257.88 890.769 1165.62Z" fill="#814AA1"/>
<path fill-rule="evenodd" clip-rule="evenodd" d="M-280.007 798.326C-348.342 756.137 -325.49 651.173 -328.939 567.647C-331.28 510.946 -323.453 455.866 -296.417 400.872C-268.105 343.283 -225.363 298.045 -175.204 254.934C-78.9309 172.19 5.52039 33.1037 121.947 41.2963C240.705 49.6531 264.373 194.501 320.548 289.819C401.506 427.188 623.364 559.599 515.683 709.387C402.267 867.153 167.47 739.296 -17.4338 759.964C-108.34 770.125 -209.032 842.145 -280.007 798.326Z" fill="#9847A3"/>
<path fill-rule="evenodd" clip-rule="evenodd" d="M373.638 465.323C372.811 520.878 308.558 560.403 264.404 602.925C234.431 631.791 202.057 654.663 163.535 667.663C123.195 681.277 84.8957 681.479 45.3573 676.848C-30.531 667.959 -133.14 692.612 -166.246 629.037C-200.014 564.188 -129.148 481.396 -95.6069 406.138C-47.2689 297.68 -47.0548 119.538 68.8456 101.55C190.919 82.6036 197.346 265.143 268.174 349.678C302.996 391.238 374.497 407.621 373.638 465.323Z" fill="#814AA1"/>
<path fill-rule="evenodd" clip-rule="evenodd" d="M1530.14 -10.0517C1539.36 31.4309 1495.88 82.4631 1468.74 128.924C1450.31 160.464 1428.93 188.37 1400.97 211.032C1371.68 234.764 1341.62 247.86 1309.72 257.79C1248.51 276.849 1172.25 329.816 1134.93 293.855C1096.87 257.173 1137.86 171.816 1150.84 104.664C1169.56 7.88619 1138.08 -124.306 1225.97 -176.823C1318.54 -232.137 1356.02 -98.9271 1426.71 -60.1725C1461.46 -41.1192 1520.56 -53.1366 1530.14 -10.0517Z" fill="#9847A3"/>
<path fill-rule="evenodd" clip-rule="evenodd" d="M1192.04 -4.94182C1211.17 -35.0004 1246.7 -39.1628 1276.33 -50.3964C1296.44 -58.0223 1315.35 -61.7316 1333.03 -58.3968C1351.53 -54.9046 1364.79 -44.654 1376.84 -31.4338C1399.95 -6.05952 1443.65 8.26041 1433.48 51.8699C1423.11 96.3527 1370.63 122.311 1333.55 154.259C1280.11 200.301 1219.61 297.345 1173.6 275.796C1125.14 253.1 1184.84 151.863 1189.13 86.6243C1191.24 54.5503 1172.17 26.2777 1192.04 -4.94182Z" fill="#814AA1"/>
</svg>
